<svg xmlns="http://www.w3.org/2000/svg" version="1.1" xmlns:xlink="http://www.w3.org/1999/xlink" viewBox="0 0 200 200"><rect width="200" height="200" fill="url('#gradient')"></rect><defs><linearGradient id="gradient" gradientTransform="rotate(45 0.5 0.5)"><stop offset="0%" stop-color="#472027"></stop><stop offset="100%" stop-color="#472027"></stop></linearGradient></defs><g><g fill="#ecc28e" transform="matrix(5.072096862960924,0,0,5.072096862960924,3.3534644837555305,136.06198423933574)" stroke="#c06a3e" stroke-width="0.35"><path d="M4.73-14.22L4.73 0L1.31 0L1.31-14.22L4.73-14.22ZM12.72-4.82L10.54-4.82L10.54 0L7.11 0L7.11-14.22L12.78-14.22Q14.41-14.22 15.67-13.62Q16.92-13.02 17.61-11.91Q18.30-10.80 18.30-9.39L18.30-9.39Q18.30-7.31 16.81-6.07Q15.32-4.82 12.72-4.82L12.72-4.82ZM10.54-11.57L10.54-7.47L12.78-7.47Q13.78-7.47 14.30-7.97Q14.82-8.47 14.82-9.38L14.82-9.38Q14.82-10.37 14.29-10.97Q13.75-11.56 12.82-11.57L12.82-11.57L10.54-11.57ZM25.74-4.82L23.55-4.82L23.55 0L20.13 0L20.13-14.22L25.80-14.22Q27.43-14.22 28.69-13.62Q29.94-13.02 30.63-11.91Q31.32-10.80 31.32-9.39L31.32-9.39Q31.32-7.31 29.83-6.07Q28.34-4.82 25.74-4.82L25.74-4.82ZM23.55-11.57L23.55-7.47L25.80-7.47Q26.80-7.47 27.32-7.97Q27.84-8.47 27.84-9.38L27.84-9.38Q27.84-10.37 27.30-10.97Q26.77-11.56 25.84-11.57L25.84-11.57L23.55-11.57ZM36.80-14.22L36.80 0L33.38 0L33.38-14.22L36.80-14.22Z"></path></g></g></svg>